<?xml version="1.0" encoding="utf-8"?>
<!-- Generator: Adobe Illustrator 22.0.0, SVG Export Plug-In . SVG Version: 6.00 Build 0)  -->
<svg version="1.1" id="Слой_1" xmlns="http://www.w3.org/2000/svg" xmlns:xlink="http://www.w3.org/1999/xlink" x="0px" y="0px"
	 viewBox="0 0 841.89 595.28" style="enable-background:new 0 0 841.89 595.28;" xml:space="preserve">
<style type="text/css">
	.st0{fill:#D2062F;}
	.st1{fill:#E5A34A;}
	.st2{fill:#9F0E1D;}
	.st3{fill:#9D122A;}
	.st4{fill:#D3062F;}
	.st5{fill:#E25D40;}
</style>
<g>
	<g>
		<path class="st0" d="M570.25,304.98h36.41c9.12,0,16.36,2.41,21.71,7.22c5.5,4.82,8.25,10.99,8.25,18.51
			c0,7.53-2.75,13.7-8.25,18.51c-5.35,4.82-12.59,7.22-21.71,7.22h-12.1V384h-24.31V304.98z M594.56,338.85h8.82
			c2.49,0,4.5-0.66,6.05-1.98c1.54-1.32,2.32-3.03,2.32-5.14c0-2.11-0.79-3.8-2.37-5.08c-1.58-1.28-3.58-1.92-5.99-1.92h-8.82
			V338.85z"/>
		<path class="st1" d="M628.37,312.21c-5.35-4.82-12.59-7.23-21.71-7.23h-28.65l17.19,19.76h8.18c2.41,0,4.41,0.64,5.99,1.92
			c1.59,1.28,2.38,2.97,2.38,5.08c0,2.1-0.78,3.82-2.32,5.13c-0.72,0.61-1.54,1.08-2.46,1.41l13.69,15.73
			c2.9-1.17,5.47-2.76,7.71-4.78c5.5-4.81,8.25-10.98,8.25-18.51C636.62,323.19,633.87,317.02,628.37,312.21z"/>
		<path class="st2" d="M636.62,330.72c0,7.53-2.75,13.7-8.25,18.51c-2.24,2.02-4.81,3.61-7.71,4.78l-13.69-15.73
			c0.92-0.33,1.74-0.8,2.46-1.41c1.54-1.31,2.32-3.03,2.32-5.13c0-1.06-0.2-2.01-0.6-2.86l15.31-18.22c0.66,0.48,1.3,1,1.91,1.55
			C633.87,317.02,636.62,323.19,636.62,330.72z"/>
	</g>
	<g>
		<path d="M262.02,265.45c0,19.6-12.27,32.21-29.53,33.47c-18.68,1.38-33.66-11.23-33.66-33.47v-49.4h6.95v49.4
			c0,18.11,9.88,28.77,26.6,28.54c14.55-0.34,24.97-12.15,24.97-28.54v-49.4h4.67V265.45z"/>
		<path d="M276.78,216.05h28.56c14.44,0,25.63,10.55,25.63,23.73c0,13.07-10.75,23.38-25.63,23.84h-21.61v32.67h-6.95V216.05z
			 M283.73,220.98v37.6l21.61-0.11c11.29-1.03,18.57-8.48,18.57-18.8c0-10.55-8.04-18.68-18.57-18.68H283.73z"/>
		<path d="M343.55,216.05h28.88c14.44,0,25.52,10.55,25.52,23.73c0,11.23-7.93,20.4-19.54,23.04l24.32,33.47h-8.47l-24.1-32.67
			H350.5v32.67h-6.95V216.05z M350.5,220.98v37.6l21.93-0.11c10.42,0,18.46-8.25,18.46-18.8c0-10.55-7.93-18.68-18.46-18.68H350.5z"
			/>
		<path d="M448.11,214.9c22.15,0,37.35,17.08,37.35,41.72c0,24.42-15.09,41.04-37.35,41.04c-22.58,0-37.79-16.51-37.79-41.04
			C410.32,231.87,425.74,214.9,448.11,214.9z M447.78,219.83c-19,0.92-30.95,15.59-30.51,37.02c0.43,22.01,12.6,35.88,30.73,35.88
			c18.89-0.11,30.95-15.13,30.51-37.48C478.08,234.16,465.05,219.03,447.78,219.83z"/>
	</g>
	<g>
		<path d="M325.61,330.6c-1.19-14.11-15.31-23.9-29.55-22.42c-18.66,1.59-29.33,14.34-29.33,35.52c0,19.24,12.51,34.83,29.44,36.31
			c10.14,1.14,19.73-2.5,26.96-9.9v-23.79H298v-4.89h32.03v26.75c-6.04,10.47-17.58,16.62-32.03,16.96
			c-20.7,0.46-38.17-17.99-38.17-41.32c0-24.47,15.31-40.87,38.17-40.87c17.47,0,32.03,12.63,32.03,27.66H325.61z"/>
		<path d="M342.86,304.08h28.68c14.34,0,25.34,10.47,25.34,23.56c0,11.16-7.87,20.26-19.41,22.88l24.15,33.24h-8.41l-23.94-32.44
			h-19.52v32.44h-6.9V304.08z M349.76,308.97v37.34l21.78-0.11c10.35,0,18.33-8.2,18.33-18.67s-7.87-18.55-18.33-18.55H349.76z"/>
		<path d="M446.7,302.94c22,0,37.09,16.96,37.09,41.43c0,24.25-14.99,40.75-37.09,40.75c-22.43,0-37.53-16.39-37.53-40.75
			C409.18,319.79,424.49,302.94,446.7,302.94z M446.38,307.83c-18.87,0.91-30.73,15.48-30.3,36.77
			c0.43,21.86,12.51,35.63,30.52,35.63c18.76-0.11,30.73-15.03,30.3-37.22C476.47,322.06,463.53,307.04,446.38,307.83z"/>
	</g>
	<g>
		<path d="M496.28,282.17c-0.46,0-0.84-0.07-1.13-0.2v-0.97c0.31,0.13,0.64,0.2,0.98,0.2c0.46,0,0.82-0.21,1.11-0.62
			c0.14-0.2,0.26-0.39,0.36-0.59c0.06-0.11,0.18-0.36,0.36-0.76l-3.63-7.04h1.06l3.04,5.98l2.54-5.98h1.02l-3.32,7.73
			c-0.34,0.79-0.71,1.36-1.09,1.71S496.75,282.17,496.28,282.17z"/>
		<path d="M503.44,282h-0.93v-6.76h5.59V282h-0.93v-5.88h-3.73V282z"/>
		<path d="M511.21,280.92v3.88h-0.93v-9.56h0.93v1.08c0.58-0.83,1.39-1.25,2.41-1.25c0.92,0,1.67,0.35,2.25,1.04
			c0.58,0.69,0.88,1.53,0.88,2.51c0,0.99-0.29,1.83-0.88,2.52c-0.58,0.69-1.33,1.04-2.25,1.04
			C512.6,282.17,511.8,281.75,511.21,280.92z M511.21,277.51v2.23c0.18,0.45,0.47,0.81,0.88,1.1s0.84,0.43,1.31,0.43
			c0.7,0,1.27-0.25,1.71-0.76c0.45-0.52,0.68-1.15,0.68-1.89c0-0.74-0.23-1.36-0.68-1.88c-0.45-0.5-1.02-0.76-1.71-0.76
			c-0.46,0-0.9,0.14-1.3,0.43C511.7,276.69,511.4,277.06,511.21,277.51z"/>
		<path d="M520.32,282.17c-0.66,0-1.22-0.2-1.69-0.59c-0.46-0.41-0.68-0.96-0.68-1.65c0-0.68,0.24-1.23,0.72-1.64
			c0.48-0.4,1.09-0.6,1.83-0.6c0.81,0,1.55,0.22,2.24,0.66v-0.67c0-1.13-0.68-1.69-2.05-1.69c-0.73,0-1.41,0.23-2.03,0.69v-0.98
			c0.61-0.41,1.35-0.62,2.23-0.62c0.85,0,1.53,0.22,2.03,0.65c0.5,0.43,0.75,1.05,0.75,1.85v2.79c0,0.26,0.05,0.47,0.16,0.62
			c0.11,0.15,0.25,0.22,0.43,0.22c0.14,0,0.26-0.03,0.36-0.08v0.78c-0.14,0.1-0.34,0.15-0.62,0.15c-0.31,0-0.57-0.09-0.78-0.27
			c-0.21-0.18-0.34-0.45-0.39-0.81C522.2,281.77,521.36,282.17,520.32,282.17z M520.57,281.26c0.43,0,0.84-0.11,1.22-0.32
			c0.39-0.21,0.7-0.49,0.94-0.81v-0.94c-0.64-0.45-1.31-0.67-2.02-0.67c-0.57,0-1.02,0.12-1.35,0.36c-0.33,0.24-0.5,0.57-0.5,0.99
			c0,0.44,0.16,0.78,0.48,1.02S520.08,281.26,520.57,281.26z"/>
		<path d="M529.61,282h-3.49v-6.76h3.27c0.59,0,1.05,0.16,1.38,0.47c0.33,0.31,0.5,0.73,0.5,1.25c0,0.73-0.26,1.22-0.77,1.48
			c0.79,0.25,1.18,0.83,1.18,1.74c0,0.57-0.18,1.01-0.54,1.34C530.78,281.84,530.27,282,529.61,282z M527.05,276.12v1.99h2.09
			c0.39,0,0.69-0.09,0.9-0.26c0.21-0.17,0.32-0.42,0.32-0.74c0-0.66-0.41-0.99-1.22-0.99H527.05z M527.05,278.95v2.17h2.37
			c0.42,0,0.75-0.09,0.98-0.28c0.23-0.19,0.35-0.45,0.35-0.8s-0.12-0.61-0.35-0.81c-0.23-0.19-0.56-0.29-0.98-0.29H527.05z"/>
		<path d="M532.64,282v-0.92c0.04,0.01,0.12,0.01,0.24,0.01c0.54,0,0.91-0.37,1.11-1.12c0.16-0.6,0.27-1.46,0.31-2.58l0.05-2.16H539
			V282h-0.93v-5.88h-2.83l-0.04,1.3c-0.02,0.5-0.03,0.87-0.05,1.09c-0.08,0.91-0.2,1.59-0.37,2.02c-0.15,0.45-0.39,0.81-0.71,1.1
			s-0.7,0.41-1.16,0.39C532.77,282.01,532.68,282.01,532.64,282z"/>
		<path d="M541.75,282h-1.06l1.85-2.7c-0.51-0.09-0.89-0.31-1.17-0.67c-0.27-0.35-0.41-0.8-0.41-1.34c0-0.63,0.2-1.12,0.59-1.5
			c0.39-0.37,0.94-0.56,1.64-0.56h3.21V282h-0.93v-2.52h-2L541.75,282z M543.35,278.6h2.14v-2.48h-2.14c-0.46,0-0.8,0.11-1.05,0.32
			c-0.24,0.21-0.37,0.52-0.37,0.92s0.12,0.71,0.37,0.92C542.54,278.49,542.89,278.6,543.35,278.6z"/>
		<path d="M551.58,282.17c-0.97,0-1.79-0.33-2.45-0.99c-0.65-0.65-0.98-1.5-0.98-2.55c0-1.01,0.29-1.85,0.88-2.53
			c0.59-0.68,1.35-1.02,2.28-1.02c0.5,0,0.94,0.11,1.33,0.33c0.39,0.22,0.69,0.51,0.91,0.86c0.22,0.35,0.39,0.73,0.5,1.13
			c0.11,0.4,0.17,0.8,0.17,1.2v0.28h-5.11c0.05,0.73,0.32,1.31,0.8,1.74c0.48,0.43,1.1,0.65,1.85,0.65c0.72,0,1.39-0.21,2-0.63v0.9
			C553.25,281.95,552.52,282.17,551.58,282.17z M549.12,278.04h4.16c-0.03-0.52-0.21-0.99-0.54-1.41c-0.32-0.43-0.81-0.64-1.47-0.64
			c-0.62,0-1.13,0.21-1.52,0.62C549.36,277.02,549.15,277.5,549.12,278.04z"/>
		<path d="M556.86,282h-0.9v-6.76h0.9l2.48,3.14l2.5-3.14h0.9V282h-0.9v-5.38l-2.32,2.93h-0.36l-2.3-2.93V282z"/>
		<path d="M495.58,289.12c0.63-0.7,1.43-1.05,2.42-1.05s1.79,0.35,2.42,1.05c0.63,0.68,0.94,1.52,0.94,2.51s-0.31,1.82-0.94,2.51
			c-0.64,0.69-1.44,1.04-2.42,1.04s-1.79-0.35-2.42-1.04c-0.63-0.68-0.94-1.52-0.94-2.51S494.96,289.8,495.58,289.12z
			 M500.41,291.63c0-0.75-0.23-1.38-0.68-1.89c-0.46-0.5-1.03-0.76-1.73-0.76s-1.27,0.25-1.72,0.76c-0.46,0.51-0.68,1.14-0.68,1.89
			c0,0.74,0.23,1.36,0.68,1.88c0.45,0.5,1.03,0.76,1.72,0.76s1.27-0.25,1.73-0.76C500.18,292.99,500.41,292.36,500.41,291.63z"/>
		<path d="M505.29,295h-0.93v-5.88h-2.25v-0.88h5.43v0.88h-2.25V295z"/>
		<path d="M511.78,295.17c-0.97,0-1.79-0.33-2.45-0.99c-0.65-0.65-0.98-1.5-0.98-2.55c0-1.01,0.29-1.85,0.88-2.53
			c0.59-0.68,1.35-1.02,2.28-1.02c0.5,0,0.94,0.11,1.33,0.33c0.39,0.22,0.69,0.51,0.91,0.86c0.22,0.35,0.39,0.73,0.5,1.13
			c0.11,0.4,0.17,0.8,0.17,1.2v0.28h-5.11c0.05,0.73,0.32,1.31,0.8,1.74c0.48,0.43,1.1,0.65,1.85,0.65c0.72,0,1.39-0.21,2-0.63v0.9
			C513.45,294.95,512.72,295.17,511.78,295.17z M509.32,291.04h4.16c-0.03-0.52-0.21-0.99-0.54-1.41c-0.32-0.43-0.81-0.64-1.47-0.64
			c-0.62,0-1.13,0.21-1.52,0.62C509.57,290.02,509.36,290.5,509.32,291.04z"/>
		<path d="M515.24,295v-0.92c0.04,0.01,0.12,0.01,0.24,0.01c0.54,0,0.91-0.37,1.11-1.12c0.16-0.6,0.27-1.46,0.31-2.58l0.05-2.16
			h4.65V295h-0.93v-5.88h-2.83l-0.04,1.3c-0.02,0.5-0.03,0.87-0.05,1.09c-0.08,0.91-0.2,1.59-0.37,2.02
			c-0.15,0.45-0.39,0.81-0.71,1.1s-0.7,0.41-1.16,0.39C515.38,295.01,515.29,295.01,515.24,295z"/>
		<path d="M524.36,295h-1.06l1.85-2.7c-0.51-0.09-0.89-0.31-1.17-0.67c-0.27-0.35-0.41-0.8-0.41-1.34c0-0.63,0.2-1.12,0.59-1.5
			c0.39-0.37,0.94-0.56,1.64-0.56h3.21V295h-0.93v-2.52h-2L524.36,295z M525.96,291.6h2.14v-2.48h-2.14c-0.46,0-0.8,0.11-1.05,0.32
			c-0.24,0.21-0.37,0.52-0.37,0.92s0.12,0.71,0.37,0.92C525.15,291.49,525.5,291.6,525.96,291.6z"/>
		<path d="M532.11,295h-0.9v-6.76h0.9l2.48,3.14l2.5-3.14h0.9V295h-0.9v-5.38l-2.32,2.93h-0.36l-2.3-2.93V295z"/>
		<path d="M541.04,295h-0.86v-6.76h0.93v5.28l3.98-5.28h0.86V295h-0.93v-5.26L541.04,295z"/>
	</g>
	<g>
		<path class="st3" d="M490.2,304.32v46.33c0,4.37,0.54,8.34,1.64,11.91l22.8-25.91v-32.33H490.2z M538.4,304.32v46.44
			c0,3.25-0.69,5.84-2.06,7.79l15.49,18.07c0.22-0.17,0.44-0.36,0.66-0.55c6.89-5.95,10.34-14.42,10.34-25.42v-46.33H538.4z"/>
		<path class="st4" d="M538.4,304.31v46.45c0,3.22-0.68,5.8-2.03,7.74l15.46,18.12c0.22-0.17,0.44-0.36,0.66-0.55
			c6.9-5.95,10.35-14.43,10.35-25.43v-46.33H538.4z"/>
		<polygon class="st4" points="514.64,333.05 514.64,304.32 490.2,304.32 		"/>
		<path class="st5" d="M551.83,376.62c-6.65,5.6-15.06,8.38-25.25,8.38c-10.46,0-19.14-2.97-26.03-8.93
			c-4.16-3.59-7.06-8.09-8.71-13.51l22.8-25.91v14.11c0,4.07,1.1,7.12,3.3,9.15c2.19,2.04,5.07,3.05,8.64,3.05
			c3.56,0,6.42-1.01,8.58-3.05c0.44-0.41,0.83-0.86,1.18-1.36L551.83,376.62z"/>
	</g>
</g>
</svg>
