<svg version="1.1" id="Слой_1" xmlns="http://www.w3.org/2000/svg" x="0" y="0" viewBox="0 0 841.89 595.28" xml:space="preserve">
  <style>
    .st4{fill:#d3062f}
  </style>
  <path d="M570.25 304.98h36.41c9.12 0 16.36 2.41 21.71 7.22 5.5 4.82 8.25 10.99 8.25 18.51 0 7.53-2.75 13.7-8.25 18.51-5.35 4.82-12.59 7.22-21.71 7.22h-12.1V384h-24.31v-79.02zm24.31 33.87h8.82c2.49 0 4.5-.66 6.05-1.98 1.54-1.32 2.32-3.03 2.32-5.14s-.79-3.8-2.37-5.08c-1.58-1.28-3.58-1.92-5.99-1.92h-8.82v14.12z" fill="#d2062f"/>
  <path d="M628.37 312.21c-5.35-4.82-12.59-7.23-21.71-7.23h-28.65l17.19 19.76h8.18c2.41 0 4.41.64 5.99 1.92 1.59 1.28 2.38 2.97 2.38 5.08 0 2.1-.78 3.82-2.32 5.13a7.89 7.89 0 01-2.46 1.41l13.69 15.73c2.9-1.17 5.47-2.76 7.71-4.78 5.5-4.81 8.25-10.98 8.25-18.51 0-7.53-2.75-13.7-8.25-18.51z" fill="#e5a34a"/>
  <path d="M636.62 330.72c0 7.53-2.75 13.7-8.25 18.51-2.24 2.02-4.81 3.61-7.71 4.78l-13.69-15.73c.92-.33 1.74-.8 2.46-1.41 1.54-1.31 2.32-3.03 2.32-5.13 0-1.06-.2-2.01-.6-2.86l15.31-18.22c.66.48 1.3 1 1.91 1.55 5.5 4.81 8.25 10.98 8.25 18.51z" fill="#9f0e1d"/>
  <path d="M262.02 265.45c0 19.6-12.27 32.21-29.53 33.47-18.68 1.38-33.66-11.23-33.66-33.47v-49.4h6.95v49.4c0 18.11 9.88 28.77 26.6 28.54 14.55-.34 24.97-12.15 24.97-28.54v-49.4h4.67v49.4zM276.78 216.05h28.56c14.44 0 25.63 10.55 25.63 23.73 0 13.07-10.75 23.38-25.63 23.84h-21.61v32.67h-6.95v-80.24zm6.95 4.93v37.6l21.61-.11c11.29-1.03 18.57-8.48 18.57-18.8 0-10.55-8.04-18.68-18.57-18.68h-21.61zM343.55 216.05h28.88c14.44 0 25.52 10.55 25.52 23.73 0 11.23-7.93 20.4-19.54 23.04l24.32 33.47h-8.47l-24.1-32.67H350.5v32.67h-6.95v-80.24zm6.95 4.93v37.6l21.93-.11c10.42 0 18.46-8.25 18.46-18.8s-7.93-18.68-18.46-18.68H350.5zM448.11 214.9c22.15 0 37.35 17.08 37.35 41.72 0 24.42-15.09 41.04-37.35 41.04-22.58 0-37.79-16.51-37.79-41.04 0-24.75 15.42-41.72 37.79-41.72zm-.33 4.93c-19 .92-30.95 15.59-30.51 37.02.43 22.01 12.6 35.88 30.73 35.88 18.89-.11 30.95-15.13 30.51-37.48-.43-21.09-13.46-36.22-30.73-35.42z"/>
  <g>
    <path d="M325.61 330.6c-1.19-14.11-15.31-23.9-29.55-22.42-18.66 1.59-29.33 14.34-29.33 35.52 0 19.24 12.51 34.83 29.44 36.31 10.14 1.14 19.73-2.5 26.96-9.9v-23.79H298v-4.89h32.03v26.75c-6.04 10.47-17.58 16.62-32.03 16.96-20.7.46-38.17-17.99-38.17-41.32 0-24.47 15.31-40.87 38.17-40.87 17.47 0 32.03 12.63 32.03 27.66h-4.42zM342.86 304.08h28.68c14.34 0 25.34 10.47 25.34 23.56 0 11.16-7.87 20.26-19.41 22.88l24.15 33.24h-8.41l-23.94-32.44h-19.52v32.44h-6.9v-79.68zm6.9 4.89v37.34l21.78-.11c10.35 0 18.33-8.2 18.33-18.67s-7.87-18.55-18.33-18.55h-21.78zM446.7 302.94c22 0 37.09 16.96 37.09 41.43 0 24.25-14.99 40.75-37.09 40.75-22.43 0-37.53-16.39-37.53-40.75.01-24.58 15.32-41.43 37.53-41.43zm-.32 4.89c-18.87.91-30.73 15.48-30.3 36.77.43 21.86 12.51 35.63 30.52 35.63 18.76-.11 30.73-15.03 30.3-37.22-.43-20.95-13.37-35.97-30.52-35.18z"/>
  </g>
  <g>
    <path d="M496.28 282.17c-.46 0-.84-.07-1.13-.2V281c.31.13.64.2.98.2.46 0 .82-.21 1.11-.62.14-.2.26-.39.36-.59.06-.11.18-.36.36-.76l-3.63-7.04h1.06l3.04 5.98 2.54-5.98h1.02l-3.32 7.73c-.34.79-.71 1.36-1.09 1.71s-.83.54-1.3.54zM503.44 282h-.93v-6.76h5.59V282h-.93v-5.88h-3.73V282zM511.21 280.92v3.88h-.93v-9.56h.93v1.08c.58-.83 1.39-1.25 2.41-1.25.92 0 1.67.35 2.25 1.04.58.69.88 1.53.88 2.51 0 .99-.29 1.83-.88 2.52-.58.69-1.33 1.04-2.25 1.04-1.02-.01-1.82-.43-2.41-1.26zm0-3.41v2.23c.18.45.47.81.88 1.1s.84.43 1.31.43c.7 0 1.27-.25 1.71-.76.45-.52.68-1.15.68-1.89s-.23-1.36-.68-1.88a2.21 2.21 0 00-1.71-.76c-.46 0-.9.14-1.3.43-.4.28-.7.65-.89 1.1zM520.32 282.17c-.66 0-1.22-.2-1.69-.59-.46-.41-.68-.96-.68-1.65 0-.68.24-1.23.72-1.64.48-.4 1.09-.6 1.83-.6.81 0 1.55.22 2.24.66v-.67c0-1.13-.68-1.69-2.05-1.69-.73 0-1.41.23-2.03.69v-.98c.61-.41 1.35-.62 2.23-.62.85 0 1.53.22 2.03.65.5.43.75 1.05.75 1.85v2.79c0 .26.05.47.16.62.11.15.25.22.43.22.14 0 .26-.03.36-.08v.78c-.14.1-.34.15-.62.15-.31 0-.57-.09-.78-.27-.21-.18-.34-.45-.39-.81-.63.79-1.47 1.19-2.51 1.19zm.25-.91c.43 0 .84-.11 1.22-.32.39-.21.7-.49.94-.81v-.94c-.64-.45-1.31-.67-2.02-.67-.57 0-1.02.12-1.35.36-.33.24-.5.57-.5.99 0 .44.16.78.48 1.02s.74.37 1.23.37zM529.61 282h-3.49v-6.76h3.27c.59 0 1.05.16 1.38.47.33.31.5.73.5 1.25 0 .73-.26 1.22-.77 1.48.79.25 1.18.83 1.18 1.74 0 .57-.18 1.01-.54 1.34-.36.32-.87.48-1.53.48zm-2.56-5.88v1.99h2.09c.39 0 .69-.09.9-.26.21-.17.32-.42.32-.74 0-.66-.41-.99-1.22-.99h-2.09zm0 2.83v2.17h2.37c.42 0 .75-.09.98-.28.23-.19.35-.45.35-.8s-.12-.61-.35-.81c-.23-.19-.56-.29-.98-.29h-2.37zM532.64 282v-.92c.04.01.12.01.24.01.54 0 .91-.37 1.11-1.12.16-.6.27-1.46.31-2.58l.05-2.16H539V282h-.93v-5.88h-2.83l-.04 1.3c-.02.5-.03.87-.05 1.09-.08.91-.2 1.59-.37 2.02-.15.45-.39.81-.71 1.1s-.7.41-1.16.39c-.14-.01-.23-.01-.27-.02zM541.75 282h-1.06l1.85-2.7c-.51-.09-.89-.31-1.17-.67-.27-.35-.41-.8-.41-1.34 0-.63.2-1.12.59-1.5.39-.37.94-.56 1.64-.56h3.21V282h-.93v-2.52h-2l-1.72 2.52zm1.6-3.4h2.14v-2.48h-2.14c-.46 0-.8.11-1.05.32-.24.21-.37.52-.37.92s.12.71.37.92c.24.21.59.32 1.05.32zM551.58 282.17c-.97 0-1.79-.33-2.45-.99-.65-.65-.98-1.5-.98-2.55 0-1.01.29-1.85.88-2.53.59-.68 1.35-1.02 2.28-1.02.5 0 .94.11 1.33.33.39.22.69.51.91.86.22.35.39.73.5 1.13.11.4.17.8.17 1.2v.28h-5.11c.05.73.32 1.31.8 1.74.48.43 1.1.65 1.85.65.72 0 1.39-.21 2-.63v.9c-.51.41-1.24.63-2.18.63zm-2.46-4.13h4.16c-.03-.52-.21-.99-.54-1.41-.32-.43-.81-.64-1.47-.64-.62 0-1.13.21-1.52.62-.39.41-.6.89-.63 1.43zM556.86 282h-.9v-6.76h.9l2.48 3.14 2.5-3.14h.9V282h-.9v-5.38l-2.32 2.93h-.36l-2.3-2.93V282zM495.58 289.12c.63-.7 1.43-1.05 2.42-1.05s1.79.35 2.42 1.05c.63.68.94 1.52.94 2.51s-.31 1.82-.94 2.51c-.64.69-1.44 1.04-2.42 1.04s-1.79-.35-2.42-1.04c-.63-.68-.94-1.52-.94-2.51s.32-1.83.94-2.51zm4.83 2.51c0-.75-.23-1.38-.68-1.89-.46-.5-1.03-.76-1.73-.76s-1.27.25-1.72.76c-.46.51-.68 1.14-.68 1.89 0 .74.23 1.36.68 1.88.45.5 1.03.76 1.72.76s1.27-.25 1.73-.76c.45-.52.68-1.15.68-1.88zM505.29 295h-.93v-5.88h-2.25v-.88h5.43v.88h-2.25V295zM511.78 295.17c-.97 0-1.79-.33-2.45-.99-.65-.65-.98-1.5-.98-2.55 0-1.01.29-1.85.88-2.53.59-.68 1.35-1.02 2.28-1.02.5 0 .94.11 1.33.33.39.22.69.51.91.86.22.35.39.73.5 1.13.11.4.17.8.17 1.2v.28h-5.11c.05.73.32 1.31.8 1.74.48.43 1.1.65 1.85.65.72 0 1.39-.21 2-.63v.9c-.51.41-1.24.63-2.18.63zm-2.46-4.13h4.16c-.03-.52-.21-.99-.54-1.41-.32-.43-.81-.64-1.47-.64-.62 0-1.13.21-1.52.62-.38.41-.59.89-.63 1.43zM515.24 295v-.92c.04.01.12.01.24.01.54 0 .91-.37 1.11-1.12.16-.6.27-1.46.31-2.58l.05-2.16h4.65V295h-.93v-5.88h-2.83l-.04 1.3c-.02.5-.03.87-.05 1.09-.08.91-.2 1.59-.37 2.02-.15.45-.39.81-.71 1.1s-.7.41-1.16.39c-.13-.01-.22-.01-.27-.02zM524.36 295h-1.06l1.85-2.7c-.51-.09-.89-.31-1.17-.67-.27-.35-.41-.8-.41-1.34 0-.63.2-1.12.59-1.5.39-.37.94-.56 1.64-.56h3.21V295h-.93v-2.52h-2l-1.72 2.52zm1.6-3.4h2.14v-2.48h-2.14c-.46 0-.8.11-1.05.32-.24.21-.37.52-.37.92s.12.71.37.92c.24.21.59.32 1.05.32zM532.11 295h-.9v-6.76h.9l2.48 3.14 2.5-3.14h.9V295h-.9v-5.38l-2.32 2.93h-.36l-2.3-2.93V295zM541.04 295h-.86v-6.76h.93v5.28l3.98-5.28h.86V295h-.93v-5.26l-3.98 5.26z"/>
  </g>
  <g>
    <path d="M490.2 304.32v46.33c0 4.37.54 8.34 1.64 11.91l22.8-25.91v-32.33H490.2zm48.2 0v46.44c0 3.25-.69 5.84-2.06 7.79l15.49 18.07c.22-.17.44-.36.66-.55 6.89-5.95 10.34-14.42 10.34-25.42v-46.33H538.4z" fill="#9d122a"/>
    <path class="st4" d="M538.4 304.31v46.45c0 3.22-.68 5.8-2.03 7.74l15.46 18.12c.22-.17.44-.36.66-.55 6.9-5.95 10.35-14.43 10.35-25.43v-46.33H538.4zM514.64 333.05v-28.73H490.2z"/>
    <path d="M551.83 376.62c-6.65 5.6-15.06 8.38-25.25 8.38-10.46 0-19.14-2.97-26.03-8.93-4.16-3.59-7.06-8.09-8.71-13.51l22.8-25.91v14.11c0 4.07 1.1 7.12 3.3 9.15 2.19 2.04 5.07 3.05 8.64 3.05 3.56 0 6.42-1.01 8.58-3.05.44-.41.83-.86 1.18-1.36l15.49 18.07z" fill="#e25d40"/>
  </g>
</svg>
