<svg width="15" height="16" viewBox="0 0 15 16" fill="none" xmlns="http://www.w3.org/2000/svg">
<path d="M13.3564 8.00003C13.3564 7.79166 13.2737 7.59182 13.1263 7.44447C12.979 7.29713 12.7791 7.21436 12.5708 7.21436H1.57133C1.36296 7.21436 1.16312 7.29713 1.01578 7.44447C0.868435 7.59182 0.78566 7.79166 0.78566 8.00003C0.78566 8.2084 0.868435 8.40824 1.01578 8.55558C1.16312 8.70293 1.36296 8.7857 1.57133 8.7857H12.5708C12.7791 8.7857 12.979 8.70293 13.1263 8.55558C13.2737 8.40824 13.3564 8.2084 13.3564 8.00003Z" fill="#656565"/>
<path d="M7.07083 14.2854C6.86246 14.2854 6.66262 14.2026 6.51527 14.0553C6.36793 13.9079 6.28516 13.7081 6.28516 13.4997V2.50029C6.28516 2.29191 6.36793 2.09208 6.51527 1.94473C6.66262 1.79739 6.86246 1.71461 7.07083 1.71461C7.2792 1.71461 7.47904 1.79739 7.62639 1.94473C7.77373 2.09208 7.8565 2.29191 7.8565 2.50029V13.4997C7.8565 13.7081 7.77373 13.9079 7.62639 14.0553C7.47904 14.2026 7.2792 14.2854 7.07083 14.2854Z" fill="#656565"/>
</svg>
